<?xml version="1.0" encoding="utf-8"?>
<!-- Generator: Adobe Illustrator 16.0.4, SVG Export Plug-In . SVG Version: 6.00 Build 0)  -->
<!DOCTYPE svg PUBLIC "-//W3C//DTD SVG 1.1//EN" "http://www.w3.org/Graphics/SVG/1.1/DTD/svg11.dtd">
<svg version="1.1" id="Layer_1" xmlns="http://www.w3.org/2000/svg" xmlns:xlink="http://www.w3.org/1999/xlink" x="0px" y="0px"
	 width="132.91px" height="33.544px" viewBox="0 0 132.91 33.544" enable-background="new 0 0 132.91 33.544" xml:space="preserve">
<g>
	<g>
		<path fill="#1E5073" d="M18.557,23.191c-1.092,0-2.164,0.378-3.014,1.063c-0.357,0.286-0.681,0.717-0.946,0.995
			c-0.443,0.443-1.004,0.744-1.597,0.935c-0.8,0.255-1.542,0.144-2.305-0.206c-1.041-0.477-1.56-1.51-2.529-2.096
			c-1.786-1.079-4.13-0.855-5.685,0.529c-1.489,1.326-2.022,3.498-1.3,5.359c0.713,1.838,2.532,3.084,4.504,3.084
			c1.089-0.002,2.159-0.379,3.009-1.059c0.41-0.329,0.676-0.773,1.057-1.116c0.46-0.414,1.026-0.69,1.619-0.862
			c0.828-0.24,1.654-0.037,2.405,0.369c0.945,0.514,1.434,1.488,2.393,2.035c1.816,1.035,4.155,0.76,5.682-0.664
			c1.43-1.334,1.918-3.455,1.209-5.279C22.344,24.439,20.531,23.191,18.557,23.191"/>
	</g>
	<g>
		<path fill="#4CA4DB" d="M14.361,3.337c-0.615,1.062-0.799,2.336-0.512,3.529c0.141,0.585,0.381,0.992,0.421,1.582
			c0.036,0.529,0.006,1.305-0.267,1.775c-0.451,0.776-1.053,1.378-1.905,1.73c-0.486,0.203-1.025,0.207-1.526,0.373
			c-0.522,0.173-1.014,0.436-1.447,0.774c-1.641,1.281-2.266,3.541-1.539,5.486c0.711,1.902,2.595,3.187,4.627,3.141
			c2.098-0.048,3.975-1.491,4.543-3.516c0.156-0.557,0.21-1.141,0.161-1.717c-0.056-0.65-0.348-1.188-0.478-1.809
			c-0.209-0.992,0.016-1.931,0.508-2.784c0.221-0.385,0.757-0.736,1.128-0.956c0.512-0.305,0.946-0.356,1.5-0.477
			c1.048-0.229,2.006-0.81,2.69-1.637c1.304-1.575,1.462-3.864,0.395-5.606C20.786,0.164,16.15,0.225,14.361,3.337"/>
	</g>
	<g>
		<path fill="#3873A0" d="M20.774,19.294c0.546,0.945,1.409,1.686,2.428,2.079c0.428,0.165,0.955,0.229,1.335,0.321
			c0.571,0.153,1.088,0.462,1.531,0.85c0.663,0.581,0.967,1.275,1.051,2.154c0.064,0.675-0.099,1.197-0.305,1.822
			c-0.193,0.586-0.275,1.207-0.237,1.824c0.135,2.172,1.774,4.012,3.904,4.421c1.993,0.382,4.072-0.558,5.09-2.315
			c1.027-1.771,0.812-4.059-0.537-5.601c-0.705-0.806-1.677-1.359-2.728-1.562c-0.974-0.188-2.045-0.614-2.576-1.532
			c-0.538-0.927-0.681-2.085-0.276-3.093c0.45-1.118,0.452-2.389,0.017-3.513c-0.748-1.93-2.689-3.198-4.757-3.095
			C21.175,12.232,19,16.229,20.774,19.294"/>
	</g>
	<g>
		<path fill="#1E5073" d="M101.563,16.501h-2.797c-0.095,0-0.172,0.076-0.172,0.172v-0.03l-3.803,11.349
			c-0.024,0.066-0.088,0.115-0.161,0.115h-0.065c-0.072,0-0.14-0.049-0.162-0.115l-3.799-11.346v0.029
			c0-0.096-0.078-0.172-0.173-0.172h-2.799c-0.095,0-0.172,0.076-0.172,0.172v0.022l0.01,0.029l0.009,0.023l0.037,0.098
			l5.787,15.776c0.033,0.088,0.091,0.117,0.191,0.112h2.21l-0.029-0.011c0.089,0.033,0.188-0.014,0.221-0.102l5.789-15.777
			l0.052-0.142v-0.03C101.737,16.577,101.66,16.501,101.563,16.501z"/>
	</g>
	<g>
		<path fill="#1E5073" d="M69.618,18.976l0.006-0.009c0.027-0.034,0.038-0.075,0.036-0.114v-2.18c0-0.096-0.077-0.172-0.173-0.172
			H58.269c-0.095,0-0.172,0.076-0.172,0.172v2.26c0,0.096,0.077,0.172,0.172,0.172h7.503c0.065,0,0.122,0.037,0.151,0.094
			c0.029,0.058,0.021,0.127-0.017,0.179l-8.217,10.87c-0.003,0.004-0.005,0.008-0.007,0.01l-0.021,0.027l0.004-0.002
			c-0.017,0.025-0.028,0.055-0.028,0.088v2.192c0,0.096,0.078,0.172,0.172,0.172h11.678c0.096,0,0.173-0.076,0.173-0.172v-2.456
			c0-0.096-0.077-0.172-0.173-0.172h-7.964c-0.065,0-0.125-0.037-0.153-0.096c-0.028-0.057-0.021-0.126,0.018-0.178L69.618,18.976z"
			/>
	</g>
	<g>
		<path fill="#1E5073" d="M47.465,16.303c-2.255,0.006-3.913,0.544-5.13,1.955c-0.029,0.033-0.088,0.092-0.117,0.127
			c0,0.001,0.026-0.023,0.026-0.022l0,0c-0.009,0.007-0.019,0.013-0.026,0.022c-0.058,0.075-0.043,0.184,0.032,0.24l0.001,0.002
			c0,0,0,0,0-0.002l1.926,1.473l0,0l0.137,0.105l0.023,0.016l-0.022-0.016c0.076,0.057,0.184,0.043,0.241-0.033
			c0.513-0.758,1.426-1.073,3.075-1.064c1.206,0.002,2.083,0.135,2.683,0.496c0.607,0.363,0.894,0.979,0.888,1.797v1.732
			c0,0.045-0.019,0.088-0.05,0.119c-0.031,0.03-0.075,0.049-0.121,0.049H46.42c-3.487,0.01-5.212,2.169-5.224,4.738
			c0.01,2.781,2.057,4.886,5.683,4.896c2.239-0.005,3.289-0.505,3.939-1.584c0.032-0.051,0.087-0.082,0.147-0.082h0.064
			c0.046,0,0.09,0.018,0.121,0.049c0.031,0.031,0.05,0.075,0.05,0.119v1.129c0,0.096,0.077,0.172,0.172,0.172h2.65
			c0.095,0,0.172-0.076,0.172-0.172v-10.97C54.181,17.615,51.532,16.328,47.465,16.303z M42.252,18.626 M51.201,27.087
			c0,1.302-0.24,2.1-0.897,2.546c-0.651,0.435-1.607,0.495-3,0.499c-1.152,0-1.973-0.249-2.519-0.665
			c-0.542-0.413-0.789-0.995-0.787-1.597c-0.001-0.646,0.254-1.209,0.771-1.586c0.516-0.378,1.273-0.575,2.271-0.576h3.99
			c0.046,0,0.09,0.019,0.121,0.051c0.031,0.029,0.05,0.073,0.05,0.119V27.087z"/>
	</g>
	<g>
		<path fill="#1E5073" d="M78.339,16.303c-2.256,0.006-3.914,0.544-5.13,1.955c-0.03,0.033-0.088,0.092-0.118,0.127
			c0,0.001,0.027-0.023,0.027-0.022l0,0c-0.01,0.007-0.02,0.013-0.027,0.022c-0.058,0.075-0.042,0.184,0.033,0.24v0.002
			c0,0,0,0,0-0.002l1.926,1.473l0,0l0.137,0.105l0.023,0.016l-0.023-0.016c0.076,0.057,0.184,0.043,0.242-0.033
			c0.512-0.758,1.426-1.073,3.074-1.064c1.206,0.002,2.084,0.135,2.683,0.496c0.608,0.363,0.894,0.979,0.888,1.797v1.732
			c0,0.045-0.018,0.088-0.049,0.119c-0.031,0.03-0.075,0.049-0.121,0.049h-4.609c-3.486,0.01-5.213,2.169-5.225,4.738
			c0.01,2.781,2.058,4.886,5.684,4.896c2.239-0.005,3.289-0.505,3.939-1.584c0.031-0.051,0.087-0.082,0.146-0.082h0.064
			c0.046,0,0.09,0.018,0.121,0.049s0.049,0.075,0.049,0.119v1.129c0,0.096,0.078,0.172,0.174,0.172h2.648
			c0.096,0,0.172-0.076,0.172-0.172v-10.97C85.054,17.615,82.405,16.328,78.339,16.303z M73.126,18.626 M82.073,27.087
			c0,1.302-0.238,2.1-0.896,2.546c-0.65,0.435-1.607,0.495-3,0.499c-1.151,0-1.973-0.249-2.518-0.665
			c-0.541-0.413-0.789-0.995-0.788-1.597c-0.001-0.646,0.255-1.209,0.771-1.586c0.517-0.378,1.273-0.575,2.271-0.576h3.99
			c0.046,0,0.09,0.019,0.121,0.051c0.031,0.029,0.049,0.073,0.049,0.119V27.087z"/>
	</g>
	<g>
		<path fill="#1E5073" d="M109.998,16.303c-3.13,0.017-6.647,1.994-6.665,8.367c0.022,6.719,3.838,8.24,7.188,8.264
			c2.029,0,3.956-0.664,5.504-2.244c0.033-0.035,0.066-0.07,0.099-0.105c0.007-0.006,0.016-0.01,0.022-0.018
			c0.004-0.004,0.006-0.01,0.008-0.014c0.051-0.072,0.041-0.17-0.027-0.229l-1.906-1.624l-0.012-0.009l0,0
			c-0.072-0.062-0.181-0.054-0.242,0.018l0.013-0.016c-0.991,0.911-2.294,1.438-3.523,1.44c-1.177,0-2.213-0.355-2.953-1.074
			c-0.741-0.719-1.172-1.791-1.172-3.182c0-0.044,0.019-0.088,0.051-0.117c0.03-0.033,0.073-0.051,0.12-0.051h9.988
			c0.096,0,0.172-0.076,0.172-0.173V23.13C116.656,18.94,113.573,16.31,109.998,16.303z M113.617,23.247
			c-0.032,0.033-0.076,0.052-0.122,0.052h-6.994c-0.047,0-0.09-0.019-0.123-0.051c-0.031-0.033-0.048-0.076-0.048-0.122
			c0.054-2.583,1.622-4.031,3.668-4.021c2.046-0.011,3.583,1.438,3.664,4.018C113.665,23.169,113.649,23.213,113.617,23.247z"/>
	</g>
	<g>
		<path fill="#1E5073" d="M125.397,16.303c-2.254,0.006-3.912,0.544-5.129,1.955c-0.029,0.033-0.088,0.092-0.117,0.127
			c0,0.001,0.027-0.023,0.025-0.022l0,0c-0.009,0.007-0.019,0.013-0.025,0.022c-0.059,0.075-0.043,0.184,0.032,0.24l0.001,0.002
			c0,0,0,0,0-0.002l1.925,1.473l0,0l0.137,0.105l0.023,0.016l-0.022-0.016c0.076,0.057,0.184,0.043,0.241-0.033
			c0.513-0.758,1.427-1.073,3.075-1.064c1.205,0.002,2.082,0.135,2.682,0.496c0.607,0.363,0.895,0.979,0.889,1.797v1.732
			c0,0.045-0.019,0.088-0.051,0.119c-0.03,0.03-0.074,0.049-0.119,0.049h-4.61c-3.485,0.01-5.212,2.169-5.224,4.738
			c0.01,2.781,2.057,4.886,5.683,4.896c2.239-0.005,3.289-0.505,3.94-1.584c0.031-0.051,0.086-0.082,0.146-0.082h0.064
			c0.045,0,0.089,0.018,0.119,0.049c0.032,0.031,0.051,0.075,0.051,0.119v1.129c0,0.096,0.076,0.172,0.173,0.172h2.649
			c0.096,0,0.172-0.076,0.172-0.172v-10.97C132.114,17.615,129.466,16.328,125.397,16.303z M120.186,18.626 M129.134,27.087
			c0,1.302-0.239,2.1-0.896,2.546c-0.65,0.435-1.607,0.495-3,0.499c-1.152,0-1.973-0.249-2.519-0.665
			c-0.542-0.413-0.789-0.995-0.788-1.597c-0.001-0.646,0.256-1.209,0.771-1.586c0.516-0.378,1.273-0.575,2.271-0.576h3.99
			c0.045,0,0.089,0.019,0.119,0.051c0.032,0.029,0.051,0.073,0.051,0.119V27.087z"/>
	</g>
</g>
<g>
	<path fill="#868686" d="M42.633,1.041h3.084c1.193,0.008,2.089,0.52,2.686,1.536c0.213,0.341,0.348,0.699,0.405,1.074
		c0.044,0.375,0.066,1.021,0.066,1.941c0,0.978-0.035,1.661-0.103,2.048c-0.032,0.195-0.081,0.37-0.145,0.524
		c-0.068,0.15-0.151,0.306-0.248,0.468c-0.258,0.429-0.617,0.783-1.076,1.062c-0.456,0.299-1.014,0.449-1.675,0.449h-2.994V1.041z
		 M43.967,8.844h1.599c0.75,0,1.295-0.265,1.634-0.794c0.149-0.196,0.244-0.444,0.285-0.744c0.036-0.296,0.054-0.851,0.054-1.664
		c0-0.792-0.018-1.359-0.054-1.702c-0.048-0.342-0.164-0.619-0.345-0.832c-0.372-0.53-0.896-0.786-1.574-0.77h-1.599V8.844z"/>
	<path fill="#868686" d="M54.972,8.106h-3.343l-0.677,2.036h-1.415l3.204-9.101h1.119l3.204,9.101h-1.409L54.972,8.106z
		 M54.591,6.884l-1.276-3.981h-0.024l-1.276,3.981H54.591z"/>
	<path fill="#868686" d="M58.8,2.264h-2.416V1.041h6.168v1.223h-2.417v7.878H58.8V2.264z"/>
	<path fill="#868686" d="M67.263,8.106h-3.343l-0.677,2.036h-1.415l3.204-9.101h1.119l3.204,9.101h-1.408L67.263,8.106z
		 M66.882,6.884l-1.276-3.981h-0.024l-1.276,3.981H66.882z"/>
	<path fill="#868686" d="M78.124,8.106h-3.343l-0.677,2.036h-1.415l3.204-9.101h1.119l3.203,9.101h-1.408L78.124,8.106z
		 M77.743,6.884l-1.275-3.981h-0.023l-1.276,3.981H77.743z"/>
	<path fill="#868686" d="M81.403,1.041h1.258l3.992,6.47h0.025v-6.47h1.334v9.101h-1.264l-3.986-6.47h-0.025v6.47h-1.334V1.041z"/>
	<path fill="#868686" d="M94.666,8.106h-3.343l-0.678,2.036h-1.414l3.203-9.101h1.119l3.204,9.101h-1.409L94.666,8.106z
		 M94.285,6.884l-1.276-3.981h-0.023L91.71,6.884H94.285z"/>
	<path fill="#868686" d="M97.945,1.041h1.335v7.803h4.297v1.298h-5.632V1.041z"/>
	<path fill="#868686" d="M104.942,6.398l-2.652-5.357h1.414l1.869,4.038l1.869-4.038h1.415l-2.655,5.356v3.745h-1.26V6.398z"/>
	<path fill="#868686" d="M111.298,2.264h-2.416V1.041h6.168v1.223h-2.418v7.878h-1.334V2.264z"/>
	<path fill="#868686" d="M116.191,1.041h1.335v9.101h-1.335V1.041z"/>
	<path fill="#868686" d="M125.434,7.6c-0.194,0.843-0.563,1.491-1.106,1.944c-0.561,0.449-1.225,0.673-1.99,0.673
		c-0.693-0.017-1.271-0.191-1.734-0.524c-0.473-0.321-0.814-0.691-1.027-1.111c-0.065-0.137-0.123-0.269-0.176-0.393
		c-0.049-0.129-0.089-0.292-0.121-0.487c-0.061-0.366-0.091-1.069-0.091-2.11c0-1.057,0.03-1.764,0.091-2.122
		c0.064-0.358,0.163-0.647,0.297-0.868c0.213-0.42,0.556-0.795,1.027-1.124c0.463-0.333,1.042-0.503,1.735-0.512
		c0.851,0.009,1.544,0.268,2.079,0.779c0.537,0.515,0.875,1.153,1.017,1.914h-1.417c-0.109-0.367-0.307-0.68-0.594-0.938
		c-0.299-0.246-0.662-0.373-1.09-0.381c-0.314,0.008-0.586,0.073-0.812,0.194c-0.229,0.125-0.416,0.281-0.558,0.469
		c-0.173,0.196-0.288,0.448-0.345,0.757c-0.064,0.325-0.097,0.936-0.097,1.833c0,0.897,0.032,1.503,0.097,1.82
		c0.057,0.317,0.172,0.574,0.345,0.77c0.143,0.188,0.328,0.34,0.559,0.457c0.226,0.138,0.496,0.207,0.812,0.207
		c0.751,0,1.312-0.415,1.685-1.245H125.434z"/>
	<path fill="#868686" d="M126.706,7.937c0.702,0.597,1.537,0.899,2.506,0.907c1.145-0.017,1.727-0.439,1.742-1.268
		c0.008-0.679-0.375-1.087-1.148-1.225c-0.355-0.05-0.744-0.106-1.168-0.169c-0.758-0.129-1.334-0.418-1.729-0.868
		c-0.407-0.462-0.61-1.024-0.61-1.687c0-0.795,0.256-1.437,0.768-1.924c0.494-0.483,1.197-0.729,2.107-0.737
		c1.096,0.025,2.048,0.338,2.857,0.94l-0.744,1.133c-0.661-0.451-1.389-0.684-2.184-0.701c-0.412,0-0.754,0.106-1.029,0.318
		c-0.285,0.221-0.434,0.55-0.441,0.987c0,0.262,0.1,0.5,0.297,0.712c0.197,0.216,0.514,0.366,0.949,0.45
		c0.242,0.042,0.572,0.089,0.992,0.144c0.826,0.117,1.438,0.423,1.832,0.918c0.391,0.487,0.587,1.054,0.587,1.699
		c-0.044,1.741-1.075,2.624-3.093,2.649c-1.306,0-2.428-0.414-3.365-1.242L126.706,7.937z"/>
</g>
</svg>
