<?xml version="1.0" encoding="utf-8"?>
<!-- Generator: Adobe Illustrator 16.0.4, SVG Export Plug-In . SVG Version: 6.00 Build 0)  -->
<!DOCTYPE svg PUBLIC "-//W3C//DTD SVG 1.1//EN" "http://www.w3.org/Graphics/SVG/1.1/DTD/svg11.dtd">
<svg version="1.1" id="Layer_1" xmlns="http://www.w3.org/2000/svg" xmlns:xlink="http://www.w3.org/1999/xlink" x="0px" y="0px"
	 width="190px" height="30px" viewBox="0 0 190 30" enable-background="new 0 0 190 30" xml:space="preserve">
<g>
	<path fill="#FFFFFF" d="M54.259,24.782c-5.521,0-10.016-4.491-10.016-10.013S48.737,4.757,54.259,4.757
		c3.271,0,6.181,1.575,8.009,4.009l3.862-2.88c-2.708-3.609-7.021-5.949-11.871-5.949c-8.182,0-14.835,6.654-14.835,14.833
		c0,8.178,6.653,14.832,14.835,14.832c4.792,0,9.063-2.287,11.777-5.826l-3.843-2.906C60.361,23.246,57.488,24.782,54.259,24.782z"
		/>
	<rect x="69" fill="#FFFFFF" width="5" height="29"/>
	<path fill="#FFFFFF" d="M174.237,0.163c-3.751,0-7.175,1.398-9.79,3.7c-1.211,1.062-2.247,2.322-3.061,3.726
		c-1.262,2.181-1.984,4.711-1.984,7.407c0,8.178,6.653,14.832,14.835,14.832c8.178,0,14.832-6.654,14.832-14.832
		C189.069,6.816,182.415,0.163,174.237,0.163z M174.237,25.008c-5.521,0-10.017-4.491-10.017-10.013c0-0.78,0.092-1.539,0.26-2.271
		c0.47-2.009,1.545-3.789,3.024-5.133c1.777-1.62,4.142-2.608,6.732-2.608c5.521,0,10.013,4.491,10.013,10.013
		S179.759,25.008,174.237,25.008z"/>
	<path fill="#FFFFFF" d="M92.895,25.008c-5.521,0-10.016-4.491-10.016-10.013S87.373,4.982,92.895,4.982
		c3.271,0,6.182,1.575,8.01,4.009l3.861-2.88c-2.707-3.609-7.021-5.949-11.871-5.949c-8.181,0-14.835,6.654-14.835,14.833
		c0,8.178,6.654,14.832,14.835,14.832c4.793,0,9.064-2.286,11.778-5.825l-3.844-2.907C98.998,23.471,96.124,25.008,92.895,25.008z"
		/>
	<path fill="#FFFFFF" d="M134.436,6.755c0.214-0.26,0.424-0.516,0.625-0.776l0.008-0.101l-0.346-0.466l-0.012,0.007
		c-0.535-0.668-1.125-1.289-1.766-1.856c-2.614-2.322-6.055-3.736-9.822-3.736c-8.182,0-14.834,6.652-14.834,14.831
		c0,2.473,0.609,4.807,1.682,6.858c0.093,0.175,0.186,0.346,0.283,0.517c2.562,4.45,7.371,7.456,12.869,7.456
		c4.793,0,9.064-2.283,11.779-5.824l-3.846-2.906c-1.832,2.377-4.706,3.911-7.934,3.911c-2.68,0-5.113-1.056-6.916-2.78
		C124.227,17.236,130.219,11.897,134.436,6.755z M113.108,14.658c0-5.522,4.493-10.011,10.015-10.011
		c2.548,0,4.874,0.955,6.645,2.528c-3.977,4.179-9.099,8.4-15.537,12.082C113.512,17.877,113.108,16.312,113.108,14.658z"/>
	<g>
		<path fill="#53A8C8" d="M23.613,0.823H1.997v20.126C6.519,14.276,13.373,6.828,23.613,0.823z"/>
		<path fill="#63BB4E" d="M5.918,28.783h24.038V5.079C25.537,12.578,18.105,21.702,5.918,28.783z"/>
	</g>
	<path fill="#FFFFFF" d="M153.527,0.341c-3.752,0-7.418,1.398-10.031,3.701C143.408,4.119,144,4.199,143,4.277V1h-4v14.175v0.082V29
		h4V15.257v-0.082c0-0.78,0.345-1.542,0.512-2.271c0.471-2.012,1.674-3.791,3.153-5.134c1.778-1.619,4.208-2.609,6.798-2.609
		c1.518,0,2.985,0.338,4.274,0.948c0.055-0.102,0.124-0.199,0.183-0.299c0.764-1.324,1.692-2.536,2.748-3.627
		C158.549,1.008,156.117,0.341,153.527,0.341z"/>
</g>
</svg>
